# Blender 4.1.1
# www.blender.org
mtllib marco ovalado.mtl
o el_cuadro_mas_feo_del_mundo
v 0.000000 7.337877 0.000000
v -0.565977 7.199562 0.000000
v -1.000721 6.833892 0.000000
v -1.233087 6.343933 0.000000
v -1.255629 5.833171 0.000000
v -1.233087 5.322410 0.000000
v -1.000721 4.832450 0.000000
v -0.565977 4.466781 0.000000
v 0.000000 4.328465 0.000000
v 0.565977 4.466781 0.000000
v 1.000721 4.832450 0.000000
v 1.233087 5.322410 0.000000
v 1.255629 5.833171 0.000000
v 1.233087 6.343933 0.000000
v 1.000721 6.833892 0.000000
v 0.565977 7.199562 0.000000
v 0.000000 7.145218 0.107238
v -0.479016 7.028155 0.107238
v -0.849079 6.716890 0.107238
v -1.047785 6.297904 0.107238
v -1.068295 5.833171 0.107238
v -1.047785 5.368439 0.107238
v -0.849079 4.949453 0.107238
v -0.479016 4.638187 0.107238
v 0.000000 4.521124 0.107238
v 0.479017 4.638187 0.107238
v 0.849079 4.949453 0.107238
v 1.047785 5.368439 0.107238
v 1.068295 5.833171 0.107238
v 1.047785 6.297904 0.107238
v 0.849079 6.716890 0.107238
v 0.479017 7.028155 0.107238
v 0.000000 7.181113 0.265231
v 0.000000 7.145218 0.230363
v 0.000000 7.155731 0.255019
v -0.479016 7.028155 0.230363
v -0.495218 7.060090 0.265231
v -0.483762 7.037508 0.255019
v -0.849079 6.716890 0.230363
v -0.877331 6.738688 0.265231
v -0.857354 6.723274 0.255019
v -1.047785 6.297904 0.230363
v -1.082309 6.306479 0.265231
v -1.057897 6.300416 0.255019
v -1.068295 5.833171 0.230363
v -1.103197 5.833171 0.265231
v -1.078518 5.833171 0.255019
v -1.047785 5.368439 0.230363
v -1.082309 5.359863 0.265231
v -1.057897 5.365927 0.255019
v -0.849079 4.949453 0.230363
v -0.877331 4.927654 0.265231
v -0.857353 4.943069 0.255019
v -0.479016 4.638187 0.230363
v -0.495218 4.606253 0.265231
v -0.483762 4.628834 0.255019
v 0.000000 4.521124 0.230363
v 0.000000 4.485230 0.265231
v 0.000000 4.510612 0.255019
v 0.479017 4.638187 0.230363
v 0.495218 4.606253 0.265231
v 0.483762 4.628834 0.255019
v 0.849079 4.949453 0.230363
v 0.877331 4.927654 0.265231
v 0.857354 4.943069 0.255019
v 1.047785 5.368439 0.230363
v 1.082309 5.359863 0.265231
v 1.057897 5.365927 0.255019
v 1.068295 5.833171 0.230363
v 1.103197 5.833171 0.265231
v 1.078518 5.833171 0.255019
v 1.047785 6.297904 0.230363
v 1.082309 6.306479 0.265231
v 1.057897 6.300416 0.255019
v 0.849079 6.716890 0.230363
v 0.877331 6.738688 0.265231
v 0.857353 6.723274 0.255019
v 0.479017 7.028155 0.230363
v 0.495218 7.060090 0.265231
v 0.483762 7.037508 0.255019
v -0.552967 7.173917 0.265231
v -0.565977 7.199562 0.237231
v -0.562167 7.192051 0.257030
v 0.000000 7.337877 0.237231
v 0.000000 7.309052 0.265231
v 0.000000 7.329435 0.257030
v -0.978033 6.816387 0.265231
v -1.000721 6.833892 0.237231
v -0.994076 6.828765 0.257030
v -1.205363 6.337046 0.265231
v -1.233087 6.343933 0.237231
v -1.224967 6.341916 0.257030
v -1.227601 5.833171 0.265231
v -1.255629 5.833171 0.237231
v -1.247419 5.833171 0.257030
v -1.205363 5.329297 0.265231
v -1.233087 5.322410 0.237231
v -1.224967 5.324427 0.257030
v -0.978033 4.849956 0.265231
v -1.000721 4.832450 0.237231
v -0.994076 4.837577 0.257030
v -0.552967 4.492426 0.265231
v -0.565977 4.466781 0.237231
v -0.562167 4.474292 0.257030
v 0.000000 4.357290 0.265231
v 0.000000 4.328465 0.237231
v 0.000000 4.336908 0.257030
v 0.552967 4.492426 0.265231
v 0.565977 4.466781 0.237231
v 0.562167 4.474292 0.257030
v 0.978033 4.849956 0.265231
v 1.000721 4.832450 0.237231
v 0.994076 4.837577 0.257030
v 1.205363 5.329297 0.265231
v 1.233087 5.322410 0.237231
v 1.224967 5.324427 0.257030
v 1.227601 5.833171 0.265231
v 1.255629 5.833171 0.237231
v 1.247419 5.833171 0.257030
v 1.205363 6.337046 0.265231
v 1.233087 6.343933 0.237231
v 1.224967 6.341916 0.257030
v 0.978033 6.816387 0.265231
v 1.000721 6.833892 0.237231
v 0.994076 6.828765 0.257030
v 0.552967 7.173917 0.265231
v 0.565977 7.199562 0.237231
v 0.562167 7.192051 0.257030
v -0.506447 7.087910 0.249491
v 0.000000 7.211677 0.249491
v -0.897224 6.759221 0.249491
v -1.106850 6.317212 0.249491
v -1.128212 5.833171 0.249491
v -1.106850 5.349131 0.249491
v -0.897224 4.907122 0.249491
v -0.506447 4.578433 0.249491
v 0.000000 4.454666 0.249491
v 0.506447 4.578433 0.249491
v 0.897224 4.907122 0.249491
v 1.106850 5.349131 0.249491
v 1.128212 5.833171 0.249491
v 1.106850 6.317212 0.249491
v 0.897224 6.759221 0.249491
v 0.506447 7.087910 0.249491
v -0.000000 7.231527 0.249491
v -0.523921 7.103490 0.249491
v -0.926659 6.764741 0.249491
v -1.142048 6.310579 0.249491
v -1.163117 5.833171 0.249491
v -1.142048 5.355764 0.249491
v -0.926659 4.901602 0.249491
v -0.523921 4.562852 0.249491
v -0.000000 4.434815 0.249491
v 0.523921 4.562852 0.249491
v 0.926659 4.901602 0.249491
v 1.142048 5.355764 0.249491
v 1.163117 5.833171 0.249491
v 1.142048 6.310579 0.249491
v 0.926659 6.764741 0.249491
v 0.523921 7.103490 0.249491
vn -0.9990 0.0441 -0.0000
vn 0.2371 0.0105 -0.9714
vn 0.1112 -0.4550 -0.8835
vn -0.4579 -0.2172 -0.8620
vn 0.0486 0.1987 -0.9788
vn -0.1364 0.1622 -0.9773
vn 0.4579 -0.2172 -0.8620
vn 0.1364 -0.1622 -0.9773
vn 0.2374 -0.9714 -0.0000
vn -0.4579 0.2172 -0.8620
vn -0.1364 -0.1622 -0.9773
vn 0.1112 0.4550 -0.8835
vn 0.1364 0.1622 -0.9773
vn -0.1112 -0.4550 -0.8835
vn -0.2371 0.0105 -0.9714
vn 0.5324 0.0235 -0.8461
vn 0.2374 0.9714 -0.0000
vn 0.9035 -0.4285 -0.0000
vn -0.9035 0.4285 -0.0000
vn -0.9990 -0.0441 -0.0000
vn -0.9035 -0.4285 -0.0000
vn -0.6437 -0.7653 -0.0000
vn -0.2374 -0.9714 -0.0000
vn 0.6437 -0.7653 -0.0000
vn 0.9990 -0.0441 -0.0000
vn 0.9990 0.0441 -0.0000
vn 0.9035 0.4285 -0.0000
vn 0.6437 0.7653 -0.0000
vn -0.6437 0.7653 -0.0000
vn -0.2374 0.9714 -0.0000
vn 0.2371 -0.0105 -0.9714
vn -0.0908 0.3717 -0.9239
vn -0.2193 0.8975 -0.3827
vn -0.2463 0.2929 -0.9239
vn -0.5947 0.7070 -0.3827
vn -0.3458 0.1640 -0.9239
vn -0.8348 0.3959 -0.3827
vn -0.3823 0.0169 -0.9239
vn -0.9230 0.0407 -0.3827
vn -0.3823 -0.0169 -0.9239
vn -0.9230 -0.0407 -0.3827
vn -0.3458 -0.1640 -0.9239
vn -0.8348 -0.3959 -0.3827
vn -0.2463 -0.2929 -0.9239
vn -0.5947 -0.7070 -0.3827
vn -0.0908 -0.3717 -0.9239
vn -0.2193 -0.8975 -0.3827
vn 0.0908 -0.3717 -0.9239
vn 0.2193 -0.8975 -0.3827
vn 0.2463 -0.2929 -0.9239
vn 0.5947 -0.7070 -0.3827
vn 0.3458 -0.1640 -0.9239
vn 0.8348 -0.3959 -0.3827
vn 0.3823 -0.0169 -0.9239
vn 0.9230 -0.0407 -0.3827
vn 0.3823 0.0169 -0.9239
vn 0.9230 0.0407 -0.3827
vn 0.3458 0.1640 -0.9239
vn 0.8348 0.3959 -0.3827
vn 0.2463 0.2929 -0.9239
vn 0.5947 0.7070 -0.3827
vn 0.0908 0.3717 -0.9239
vn 0.2193 0.8975 -0.3827
vn -0.5324 -0.0235 -0.8461
vn -0.0000 -0.0000 -1.0000
vn 0.4579 0.2172 -0.8620
vn -0.2371 -0.0105 -0.9714
vn -0.1112 0.4550 -0.8835
vn -0.0486 -0.1987 -0.9788
vn -0.5324 0.0235 -0.8461
vn 0.2022 -0.0959 -0.9746
vn 0.5324 -0.0235 -0.8461
vn -0.2022 0.0959 -0.9746
vn -0.3111 -0.3698 -0.8755
vn 0.2022 0.0959 -0.9746
vn 0.3111 0.3698 -0.8755
vn -0.2022 -0.0959 -0.9746
vn -0.3111 0.3698 -0.8755
vn 0.0486 -0.1987 -0.9788
vn 0.3111 -0.3698 -0.8755
vn -0.0486 0.1987 -0.9788
vt 0.000000 0.000000
s 0
usemtl Material.001
f 45/1/1 42/1/1 20/1/1 21/1/1
f 120/1/2 117/1/2 157/1/2 158/1/2
f 33/1/3 37/1/3 129/1/3 130/1/3
f 73/1/4 76/1/4 143/1/4 142/1/4
f 85/1/5 126/1/5 160/1/5 145/1/5
f 87/1/6 81/1/6 146/1/6 147/1/6
f 40/1/7 43/1/7 132/1/7 131/1/7
f 111/1/8 108/1/8 154/1/8 155/1/8
f 2/1/9 1/1/9 84/1/9 82/1/9
f 64/1/10 67/1/10 140/1/10 139/1/10
f 102/1/11 99/1/11 151/1/11 152/1/11
f 55/1/12 58/1/12 137/1/12 136/1/12
f 126/1/13 123/1/13 159/1/13 160/1/13
f 79/1/14 33/1/14 130/1/14 144/1/14
f 93/1/15 90/1/15 148/1/15 149/1/15
f 46/1/16 49/1/16 134/1/16 133/1/16
f 34/1/17 78/1/17 32/1/17 17/1/17
f 4/1/18 3/1/18 88/1/18 91/1/18
f 42/1/19 39/1/19 19/1/19 20/1/19
f 48/1/20 45/1/20 21/1/20 22/1/20
f 51/1/21 48/1/21 22/1/21 23/1/21
f 54/1/22 51/1/22 23/1/22 24/1/22
f 57/1/23 54/1/23 24/1/23 25/1/23
f 60/1/9 57/1/9 25/1/9 26/1/9
f 63/1/24 60/1/24 26/1/24 27/1/24
f 66/1/18 63/1/18 27/1/18 28/1/18
f 69/1/25 66/1/25 28/1/25 29/1/25
f 72/1/26 69/1/26 29/1/26 30/1/26
f 75/1/27 72/1/27 30/1/27 31/1/27
f 78/1/28 75/1/28 31/1/28 32/1/28
f 39/1/29 36/1/29 18/1/29 19/1/29
f 12/1/19 11/1/19 112/1/19 115/1/19
f 5/1/25 4/1/25 91/1/25 94/1/25
f 13/1/1 12/1/1 115/1/1 118/1/1
f 6/1/26 5/1/26 94/1/26 97/1/26
f 14/1/20 13/1/20 118/1/20 121/1/20
f 7/1/27 6/1/27 97/1/27 100/1/27
f 15/1/21 14/1/21 121/1/21 124/1/21
f 8/1/28 7/1/28 100/1/28 103/1/28
f 16/1/22 15/1/22 124/1/22 127/1/22
f 9/1/17 8/1/17 103/1/17 106/1/17
f 3/1/24 2/1/24 82/1/24 88/1/24
f 1/1/23 16/1/23 127/1/23 84/1/23
f 10/1/30 9/1/30 106/1/30 109/1/30
f 117/1/31 114/1/31 156/1/31 157/1/31
f 11/1/29 10/1/29 109/1/29 112/1/29
f 37/1/32 33/1/32 35/1/32 38/1/32
f 38/1/33 35/1/33 34/1/33 36/1/33
f 40/1/34 37/1/34 38/1/34 41/1/34
f 41/1/35 38/1/35 36/1/35 39/1/35
f 43/1/36 40/1/36 41/1/36 44/1/36
f 44/1/37 41/1/37 39/1/37 42/1/37
f 46/1/38 43/1/38 44/1/38 47/1/38
f 47/1/39 44/1/39 42/1/39 45/1/39
f 49/1/40 46/1/40 47/1/40 50/1/40
f 50/1/41 47/1/41 45/1/41 48/1/41
f 52/1/42 49/1/42 50/1/42 53/1/42
f 53/1/43 50/1/43 48/1/43 51/1/43
f 55/1/44 52/1/44 53/1/44 56/1/44
f 56/1/45 53/1/45 51/1/45 54/1/45
f 58/1/46 55/1/46 56/1/46 59/1/46
f 59/1/47 56/1/47 54/1/47 57/1/47
f 61/1/48 58/1/48 59/1/48 62/1/48
f 62/1/49 59/1/49 57/1/49 60/1/49
f 64/1/50 61/1/50 62/1/50 65/1/50
f 65/1/51 62/1/51 60/1/51 63/1/51
f 67/1/52 64/1/52 65/1/52 68/1/52
f 68/1/53 65/1/53 63/1/53 66/1/53
f 70/1/54 67/1/54 68/1/54 71/1/54
f 71/1/55 68/1/55 66/1/55 69/1/55
f 73/1/56 70/1/56 71/1/56 74/1/56
f 74/1/57 71/1/57 69/1/57 72/1/57
f 76/1/58 73/1/58 74/1/58 77/1/58
f 77/1/59 74/1/59 72/1/59 75/1/59
f 79/1/60 76/1/60 77/1/60 80/1/60
f 80/1/61 77/1/61 75/1/61 78/1/61
f 33/1/62 79/1/62 80/1/62 35/1/62
f 35/1/63 80/1/63 78/1/63 34/1/63
f 36/1/30 34/1/30 17/1/30 18/1/30
f 82/1/49 84/1/49 86/1/49 83/1/49
f 83/1/48 86/1/48 85/1/48 81/1/48
f 88/1/51 82/1/51 83/1/51 89/1/51
f 89/1/50 83/1/50 81/1/50 87/1/50
f 91/1/53 88/1/53 89/1/53 92/1/53
f 92/1/52 89/1/52 87/1/52 90/1/52
f 94/1/55 91/1/55 92/1/55 95/1/55
f 95/1/54 92/1/54 90/1/54 93/1/54
f 97/1/57 94/1/57 95/1/57 98/1/57
f 98/1/56 95/1/56 93/1/56 96/1/56
f 100/1/59 97/1/59 98/1/59 101/1/59
f 101/1/58 98/1/58 96/1/58 99/1/58
f 103/1/61 100/1/61 101/1/61 104/1/61
f 104/1/60 101/1/60 99/1/60 102/1/60
f 106/1/63 103/1/63 104/1/63 107/1/63
f 107/1/62 104/1/62 102/1/62 105/1/62
f 109/1/33 106/1/33 107/1/33 110/1/33
f 110/1/32 107/1/32 105/1/32 108/1/32
f 112/1/35 109/1/35 110/1/35 113/1/35
f 113/1/34 110/1/34 108/1/34 111/1/34
f 115/1/37 112/1/37 113/1/37 116/1/37
f 116/1/36 113/1/36 111/1/36 114/1/36
f 118/1/39 115/1/39 116/1/39 119/1/39
f 119/1/38 116/1/38 114/1/38 117/1/38
f 121/1/41 118/1/41 119/1/41 122/1/41
f 122/1/40 119/1/40 117/1/40 120/1/40
f 124/1/43 121/1/43 122/1/43 125/1/43
f 125/1/42 122/1/42 120/1/42 123/1/42
f 127/1/45 124/1/45 125/1/45 128/1/45
f 128/1/44 125/1/44 123/1/44 126/1/44
f 84/1/47 127/1/47 128/1/47 86/1/47
f 86/1/46 128/1/46 126/1/46 85/1/46
f 70/1/64 73/1/64 142/1/64 141/1/64
f 135/1/65 136/1/65 152/1/65 151/1/65
f 143/1/65 144/1/65 160/1/65 159/1/65
f 136/1/65 137/1/65 153/1/65 152/1/65
f 137/1/65 138/1/65 154/1/65 153/1/65
f 129/1/65 131/1/65 147/1/65 146/1/65
f 131/1/65 132/1/65 148/1/65 147/1/65
f 138/1/65 139/1/65 155/1/65 154/1/65
f 139/1/65 140/1/65 156/1/65 155/1/65
f 132/1/65 133/1/65 149/1/65 148/1/65
f 140/1/65 141/1/65 157/1/65 156/1/65
f 133/1/65 134/1/65 150/1/65 149/1/65
f 141/1/65 142/1/65 158/1/65 157/1/65
f 134/1/65 135/1/65 151/1/65 150/1/65
f 142/1/65 143/1/65 159/1/65 158/1/65
f 144/1/65 130/1/65 145/1/65 160/1/65
f 130/1/65 129/1/65 146/1/65 145/1/65
f 49/1/66 52/1/66 135/1/66 134/1/66
f 96/1/67 93/1/67 149/1/67 150/1/67
f 58/1/68 61/1/68 138/1/68 137/1/68
f 105/1/69 102/1/69 152/1/69 153/1/69
f 67/1/70 70/1/70 141/1/70 140/1/70
f 114/1/71 111/1/71 155/1/71 156/1/71
f 43/1/72 46/1/72 133/1/72 132/1/72
f 90/1/73 87/1/73 147/1/73 148/1/73
f 76/1/74 79/1/74 144/1/74 143/1/74
f 123/1/75 120/1/75 158/1/75 159/1/75
f 52/1/76 55/1/76 136/1/76 135/1/76
f 99/1/77 96/1/77 150/1/77 151/1/77
f 61/1/78 64/1/78 139/1/78 138/1/78
f 108/1/79 105/1/79 153/1/79 154/1/79
f 37/1/80 40/1/80 131/1/80 129/1/80
f 81/1/81 85/1/81 145/1/81 146/1/81
